<svg width="10" height="6" viewBox="0 0 10 6" fill="none" xmlns="http://www.w3.org/2000/svg">
<path d="M1.00102 1.56763C1.00076 1.43523 1.04687 1.30693 1.13134 1.20498C1.17891 1.14761 1.23733 1.10018 1.30326 1.06542C1.36918 1.03065 1.44132 1.00924 1.51553 1.00239C1.58975 0.99555 1.66459 1.00342 1.73576 1.02554C1.80693 1.04766 1.87304 1.08361 1.93029 1.13132L4.96744 3.66984L8.01026 1.22198C8.06822 1.17492 8.13491 1.13977 8.2065 1.11856C8.27809 1.09735 8.35316 1.09049 8.42741 1.09839C8.50165 1.10629 8.5736 1.12878 8.63913 1.16458C8.70465 1.20038 8.76245 1.24877 8.80921 1.30698C8.8608 1.36561 8.89971 1.43426 8.9235 1.50864C8.94729 1.58302 8.95545 1.66151 8.94747 1.73919C8.93949 1.81687 8.91554 1.89207 8.87712 1.96005C8.8387 2.02804 8.78665 2.08735 8.72422 2.13426L5.32442 4.8711C5.22303 4.95444 5.09586 5 4.96461 5C4.83336 5 4.70619 4.95444 4.6048 4.8711L1.205 2.03793C1.13643 1.98109 1.08223 1.90888 1.04678 1.82717C1.01134 1.74546 0.995661 1.65654 1.00102 1.56763Z" fill="#202020" stroke="#202020" stroke-width="0.5"/>
</svg>
