<svg width="90" height="20" viewBox="0 0 90 20" fill="none" xmlns="http://www.w3.org/2000/svg">
  <circle cx="10" cy="10" r="8.75" stroke="#1A4A67" stroke-width="1.5" />
  <path d="M7.33334 17.5467V13.8667L4.58667 15.8934C5.36 16.6134 6.29334 17.1734 7.33334 17.5467Z" fill="#2A5F9E" />
  <path d="M12.6667 17.5468C13.7067 17.1734 14.64 16.6134 15.4133 15.8934L12.6667 13.8401V17.5468Z" fill="#2A5F9E" />
  <path d="M2.45334 12.6667C2.53334 12.9334 2.64001 13.1734 2.77334 13.4401L3.81334 12.6667H2.45334Z" fill="#2A5F9E" />
  <path d="M16.1867 12.6667L17.2267 13.4401C17.3333 13.2001 17.44 12.9334 17.5467 12.6667H16.1867Z" fill="#2A5F9E" />
  <path
    d="M7.73334 11.6001H2.16C2.24 11.9734 2.34667 12.3201 2.45334 12.6668H3.81334L2.77334 13.4401C2.98667 13.8934 3.22667 14.2934 3.52 14.6934L6.26667 12.6668H7.33334V13.2001L4.21334 15.4934L4.58667 15.8668L7.33334 13.8668V17.5468C7.68 17.6801 8.02667 17.7601 8.4 17.8401V11.6001H7.73334Z"
    fill="white" />
  <path
    d="M17.84 11.6001H11.6V17.8401C11.9733 17.7601 12.32 17.6534 12.6667 17.5468V13.8668L15.4133 15.8668C15.7867 15.5201 16.1067 15.1468 16.4267 14.7468L13.5733 12.6668H15.3867L17.0133 13.8668C17.0933 13.7334 17.1733 13.5734 17.2267 13.4401L16.1867 12.6668H17.5467C17.6533 12.3201 17.76 11.9734 17.84 11.6001Z"
    fill="white" />
  <path
    d="M3.51999 14.6934C3.73332 14.9867 3.94666 15.2534 4.18666 15.52L7.33332 13.2267V12.6934H6.26666L3.51999 14.6934Z"
    fill="#ED4C5C" />
  <path
    d="M13.6 12.6667L16.4533 14.7467C16.56 14.6134 16.64 14.4801 16.7467 14.3467C16.7733 14.3201 16.7733 14.2934 16.8 14.2934C16.88 14.1601 16.9867 14.0001 17.0667 13.8667L15.3867 12.6667H13.6Z"
    fill="#ED4C5C" />
  <path d="M12.6667 2.45337V6.13337L15.4133 4.1067C14.64 3.3867 13.7067 2.8267 12.6667 2.45337Z" fill="#2A5F9E" />
  <path d="M7.33334 2.45337C6.29334 2.8267 5.36 3.3867 4.58667 4.1067L7.33334 6.16004V2.45337Z" fill="#2A5F9E" />
  <path d="M17.5467 7.33339C17.4667 7.06673 17.36 6.82673 17.2267 6.56006L16.1867 7.33339H17.5467Z" fill="#2A5F9E" />
  <path d="M3.81334 7.33339L2.77334 6.56006C2.66667 6.82673 2.56001 7.06673 2.45334 7.33339H3.81334Z" fill="#2A5F9E" />
  <path
    d="M12.2667 8.39991H17.8133C17.7333 8.02658 17.6267 7.67991 17.52 7.33324H16.16L17.2 6.55991C16.9867 6.10658 16.7467 5.70658 16.4533 5.30658L13.7333 7.33324H12.6667V6.79991L15.7867 4.50658L15.4133 4.13325L12.6667 6.13324V2.45325C12.32 2.31991 11.9733 2.23991 11.6 2.15991V8.39991H12.2667Z"
    fill="white" />
  <path
    d="M2.16 8.39991H8.4V2.15991C8.02667 2.23991 7.68 2.34658 7.33334 2.45325V6.13324L4.58667 4.13325C4.21334 4.47991 3.89334 4.85325 3.57334 5.25325L6.42667 7.33324H4.61334L2.98667 6.13324C2.90667 6.26658 2.82667 6.42658 2.77334 6.55991L3.81334 7.33324H2.45334C2.34667 7.67991 2.24 8.02658 2.16 8.39991Z"
    fill="white" />
  <path
    d="M16.48 5.30665C16.2667 5.01331 16.0533 4.74665 15.8133 4.47998L12.6667 6.77331V7.30665H13.7333L16.48 5.30665Z"
    fill="#ED4C5C" />
  <path
    d="M6.39999 7.33342L3.57332 5.25342C3.46666 5.38675 3.38666 5.52008 3.27999 5.65342C3.25332 5.68008 3.25332 5.70675 3.22666 5.70675C3.14666 5.84008 3.03999 6.00008 2.95999 6.13342L4.58666 7.33342H6.39999Z"
    fill="#ED4C5C" />
  <path
    d="M17.84 8.4H11.6V2.16C11.0933 2.05333 10.56 2 10 2C9.44 2 8.90667 2.05333 8.4 2.16V8.4H2.16C2.05333 8.90667 2 9.44 2 10C2 10.56 2.05333 11.0933 2.16 11.6H8.4V17.84C8.90667 17.9467 9.44 18 10 18C10.56 18 11.0933 17.9467 11.6 17.84V11.6H17.84C17.9467 11.0933 18 10.56 18 10C18 9.44 17.9467 8.90667 17.84 8.4Z"
    fill="#ED4C5C" />
  <path
    d="M34.0025 14.815L33.995 16H27.3725V5.2525H33.995V6.4375H28.8275V10.0075H33.0125V11.1475H28.8275V14.815H34.0025ZM36.7696 9.505C36.9346 9.32 37.1096 9.1525 37.2946 9.0025C37.4796 8.8525 37.6746 8.725 37.8796 8.62C38.0896 8.51 38.3096 8.4275 38.5396 8.3725C38.7746 8.3125 39.0271 8.2825 39.2971 8.2825C39.7121 8.2825 40.0771 8.3525 40.3921 8.4925C40.7121 8.6275 40.9771 8.8225 41.1871 9.0775C41.4021 9.3275 41.5646 9.63 41.6746 9.985C41.7846 10.34 41.8396 10.7325 41.8396 11.1625V16H40.4971V11.1625C40.4971 10.5875 40.3646 10.1425 40.0996 9.8275C39.8396 9.5075 39.4421 9.3475 38.9071 9.3475C38.5121 9.3475 38.1421 9.4425 37.7971 9.6325C37.4571 9.8225 37.1421 10.08 36.8521 10.405V16H35.5096V8.4025H36.3121C36.5021 8.4025 36.6196 8.495 36.6646 8.68L36.7696 9.505ZM46.5214 12.2875C46.7914 12.2875 47.0289 12.25 47.2339 12.175C47.4389 12.1 47.6114 11.995 47.7514 11.86C47.8914 11.725 47.9964 11.565 48.0664 11.38C48.1364 11.19 48.1714 10.9825 48.1714 10.7575C48.1714 10.2925 48.0289 9.9225 47.7439 9.6475C47.4639 9.3725 47.0564 9.235 46.5214 9.235C45.9814 9.235 45.5689 9.3725 45.2839 9.6475C45.0039 9.9225 44.8639 10.2925 44.8639 10.7575C44.8639 10.9825 44.8989 11.19 44.9689 11.38C45.0439 11.565 45.1514 11.725 45.2914 11.86C45.4314 11.995 45.6039 12.1 45.8089 12.175C46.0139 12.25 46.2514 12.2875 46.5214 12.2875ZM48.9289 16.4125C48.9289 16.2275 48.8764 16.0775 48.7714 15.9625C48.6664 15.8475 48.5239 15.7575 48.3439 15.6925C48.1689 15.6275 47.9639 15.5825 47.7289 15.5575C47.4939 15.5275 47.2439 15.505 46.9789 15.49C46.7189 15.475 46.4539 15.46 46.1839 15.445C45.9139 15.43 45.6539 15.405 45.4039 15.37C45.1239 15.5 44.8939 15.665 44.7139 15.865C44.5389 16.06 44.4514 16.29 44.4514 16.555C44.4514 16.725 44.4939 16.8825 44.5789 17.0275C44.6689 17.1775 44.8039 17.305 44.9839 17.41C45.1639 17.52 45.3889 17.605 45.6589 17.665C45.9339 17.73 46.2564 17.7625 46.6264 17.7625C46.9864 17.7625 47.3089 17.73 47.5939 17.665C47.8789 17.6 48.1189 17.5075 48.3139 17.3875C48.5139 17.2675 48.6664 17.125 48.7714 16.96C48.8764 16.795 48.9289 16.6125 48.9289 16.4125ZM50.2864 8.7025V9.1975C50.2864 9.3625 50.1814 9.4675 49.9714 9.5125L49.1089 9.625C49.2789 9.955 49.3639 10.32 49.3639 10.72C49.3639 11.09 49.2914 11.4275 49.1464 11.7325C49.0064 12.0325 48.8114 12.29 48.5614 12.505C48.3114 12.72 48.0114 12.885 47.6614 13C47.3114 13.115 46.9314 13.1725 46.5214 13.1725C46.1664 13.1725 45.8314 13.13 45.5164 13.045C45.3564 13.145 45.2339 13.2525 45.1489 13.3675C45.0639 13.4775 45.0214 13.59 45.0214 13.705C45.0214 13.885 45.0939 14.0225 45.2389 14.1175C45.3889 14.2075 45.5839 14.2725 45.8239 14.3125C46.0639 14.3525 46.3364 14.3775 46.6414 14.3875C46.9514 14.3975 47.2664 14.415 47.5864 14.44C47.9114 14.46 48.2264 14.4975 48.5314 14.5525C48.8414 14.6075 49.1164 14.6975 49.3564 14.8225C49.5964 14.9475 49.7889 15.12 49.9339 15.34C50.0839 15.56 50.1589 15.845 50.1589 16.195C50.1589 16.52 50.0764 16.835 49.9114 17.14C49.7514 17.445 49.5189 17.715 49.2139 17.95C48.9089 18.19 48.5339 18.38 48.0889 18.52C47.6489 18.665 47.1514 18.7375 46.5964 18.7375C46.0414 18.7375 45.5564 18.6825 45.1414 18.5725C44.7264 18.4625 44.3814 18.315 44.1064 18.13C43.8314 17.945 43.6239 17.73 43.4839 17.485C43.3489 17.245 43.2814 16.9925 43.2814 16.7275C43.2814 16.3525 43.3989 16.035 43.6339 15.775C43.8689 15.515 44.1914 15.3075 44.6014 15.1525C44.3764 15.0525 44.1964 14.92 44.0614 14.755C43.9314 14.585 43.8664 14.3575 43.8664 14.0725C43.8664 13.9625 43.8864 13.85 43.9264 13.735C43.9664 13.615 44.0264 13.4975 44.1064 13.3825C44.1914 13.2625 44.2939 13.15 44.4139 13.045C44.5339 12.94 44.6739 12.8475 44.8339 12.7675C44.4589 12.5575 44.1664 12.28 43.9564 11.935C43.7464 11.585 43.6414 11.18 43.6414 10.72C43.6414 10.35 43.7114 10.015 43.8514 9.715C43.9964 9.41 44.1964 9.1525 44.4514 8.9425C44.7064 8.7275 45.0089 8.5625 45.3589 8.4475C45.7139 8.3325 46.1014 8.275 46.5214 8.275C46.8514 8.275 47.1589 8.3125 47.4439 8.3875C47.7289 8.4575 47.9889 8.5625 48.2239 8.7025H50.2864ZM53.0469 4.9525V16H51.7119V4.9525H53.0469ZM56.6218 8.4025V16H55.2868V8.4025H56.6218ZM56.9068 6.0175C56.9068 6.1475 56.8793 6.27 56.8243 6.385C56.7743 6.495 56.7043 6.595 56.6143 6.685C56.5293 6.77 56.4268 6.8375 56.3068 6.8875C56.1918 6.9375 56.0693 6.9625 55.9393 6.9625C55.8093 6.9625 55.6868 6.9375 55.5718 6.8875C55.4618 6.8375 55.3643 6.77 55.2793 6.685C55.1943 6.595 55.1268 6.495 55.0768 6.385C55.0268 6.27 55.0018 6.1475 55.0018 6.0175C55.0018 5.8875 55.0268 5.765 55.0768 5.65C55.1268 5.53 55.1943 5.4275 55.2793 5.3425C55.3643 5.2525 55.4618 5.1825 55.5718 5.1325C55.6868 5.0825 55.8093 5.0575 55.9393 5.0575C56.0693 5.0575 56.1918 5.0825 56.3068 5.1325C56.4268 5.1825 56.5293 5.2525 56.6143 5.3425C56.7043 5.4275 56.7743 5.53 56.8243 5.65C56.8793 5.765 56.9068 5.8875 56.9068 6.0175ZM63.2403 9.655C63.1803 9.765 63.0878 9.82 62.9628 9.82C62.8878 9.82 62.8028 9.7925 62.7078 9.7375C62.6128 9.6825 62.4953 9.6225 62.3553 9.5575C62.2203 9.4875 62.0578 9.425 61.8678 9.37C61.6778 9.31 61.4528 9.28 61.1928 9.28C60.9678 9.28 60.7653 9.31 60.5853 9.37C60.4053 9.425 60.2503 9.5025 60.1203 9.6025C59.9953 9.7025 59.8978 9.82 59.8278 9.955C59.7628 10.085 59.7303 10.2275 59.7303 10.3825C59.7303 10.5775 59.7853 10.74 59.8953 10.87C60.0103 11 60.1603 11.1125 60.3453 11.2075C60.5303 11.3025 60.7403 11.3875 60.9753 11.4625C61.2103 11.5325 61.4503 11.61 61.6953 11.695C61.9453 11.775 62.1878 11.865 62.4228 11.965C62.6578 12.065 62.8678 12.19 63.0528 12.34C63.2378 12.49 63.3853 12.675 63.4953 12.895C63.6103 13.11 63.6678 13.37 63.6678 13.675C63.6678 14.025 63.6053 14.35 63.4803 14.65C63.3553 14.945 63.1703 15.2025 62.9253 15.4225C62.6803 15.6375 62.3803 15.8075 62.0253 15.9325C61.6703 16.0575 61.2603 16.12 60.7953 16.12C60.2653 16.12 59.7853 16.035 59.3553 15.865C58.9253 15.69 58.5603 15.4675 58.2603 15.1975L58.5753 14.6875C58.6153 14.6225 58.6628 14.5725 58.7178 14.5375C58.7728 14.5025 58.8428 14.485 58.9278 14.485C59.0178 14.485 59.1128 14.52 59.2128 14.59C59.3128 14.66 59.4328 14.7375 59.5728 14.8225C59.7178 14.9075 59.8928 14.985 60.0978 15.055C60.3028 15.125 60.5578 15.16 60.8628 15.16C61.1228 15.16 61.3503 15.1275 61.5453 15.0625C61.7403 14.9925 61.9028 14.9 62.0328 14.785C62.1628 14.67 62.2578 14.5375 62.3178 14.3875C62.3828 14.2375 62.4153 14.0775 62.4153 13.9075C62.4153 13.6975 62.3578 13.525 62.2428 13.39C62.1328 13.25 61.9853 13.1325 61.8003 13.0375C61.6153 12.9375 61.4028 12.8525 61.1628 12.7825C60.9278 12.7075 60.6853 12.63 60.4353 12.55C60.1903 12.47 59.9478 12.38 59.7078 12.28C59.4728 12.175 59.2628 12.045 59.0778 11.89C58.8928 11.735 58.7428 11.545 58.6278 11.32C58.5178 11.09 58.4628 10.8125 58.4628 10.4875C58.4628 10.1975 58.5228 9.92 58.6428 9.655C58.7628 9.385 58.9378 9.15 59.1678 8.95C59.3978 8.745 59.6803 8.5825 60.0153 8.4625C60.3503 8.3425 60.7328 8.2825 61.1628 8.2825C61.6628 8.2825 62.1103 8.3625 62.5053 8.5225C62.9053 8.6775 63.2503 8.8925 63.5403 9.1675L63.2403 9.655ZM66.6471 9.415C66.9721 9.07 67.3321 8.795 67.7271 8.59C68.1221 8.385 68.5771 8.2825 69.0921 8.2825C69.5071 8.2825 69.8721 8.3525 70.1871 8.4925C70.5071 8.6275 70.7721 8.8225 70.9821 9.0775C71.1971 9.3275 71.3596 9.63 71.4696 9.985C71.5796 10.34 71.6346 10.7325 71.6346 11.1625V16H70.2921V11.1625C70.2921 10.5875 70.1596 10.1425 69.8946 9.8275C69.6346 9.5075 69.2371 9.3475 68.7021 9.3475C68.3071 9.3475 67.9371 9.4425 67.5921 9.6325C67.2521 9.8225 66.9371 10.08 66.6471 10.405V16H65.3046V4.9525H66.6471V9.415Z"
    fill="#202020" />
  <path
    d="M81.001 10.5676C81.0008 10.4352 81.0469 10.3069 81.1313 10.205C81.1789 10.1476 81.2373 10.1002 81.3033 10.0654C81.3692 10.0307 81.4413 10.0092 81.5155 10.0024C81.5897 9.99555 81.6646 10.0034 81.7358 10.0255C81.8069 10.0477 81.873 10.0836 81.9303 10.1313L84.9674 12.6698L88.0103 10.222C88.0682 10.1749 88.1349 10.1398 88.2065 10.1186C88.2781 10.0973 88.3532 10.0905 88.4274 10.0984C88.5017 10.1063 88.5736 10.1288 88.6391 10.1646C88.7047 10.2004 88.7625 10.2488 88.8092 10.307C88.8608 10.3656 88.8997 10.4343 88.9235 10.5086C88.9473 10.583 88.9555 10.6615 88.9475 10.7392C88.9395 10.8169 88.9155 10.8921 88.8771 10.9601C88.8387 11.028 88.7866 11.0873 88.7242 11.1343L85.3244 13.8711C85.223 13.9544 85.0959 14 84.9646 14C84.8334 14 84.7062 13.9544 84.6048 13.8711L81.205 11.0379C81.1364 10.9811 81.0822 10.9089 81.0468 10.8272C81.0113 10.7455 80.9957 10.6565 81.001 10.5676Z"
    fill="#202020" stroke="#202020" stroke-width="0.5" />
</svg>