<svg width="127" height="349" viewBox="0 0 127 349" fill="none" xmlns="http://www.w3.org/2000/svg">
  <g opacity="0.4">
    <circle cx="60" cy="5" r="5" fill="#FF5F7E" />
    <circle cx="96" cy="5" r="5" fill="#FF5F7E" />
    <circle cx="78" cy="5" r="5" fill="#FF5F7E" />
    <circle cx="114" cy="5" r="5" fill="#FF5F7E" />
    <circle cx="60" cy="41" r="5" fill="#FF5F7E" />
    <circle cx="96" cy="41" r="5" fill="#FF5F7E" />
    <circle cx="78" cy="41" r="5" fill="#FF5F7E" />
    <circle cx="114" cy="41" r="5" fill="#FF5F7E" />
    <circle cx="60" cy="77" r="5" fill="#FF5F7E" />
    <circle cx="96" cy="77" r="5" fill="#FF5F7E" />
    <circle cx="78" cy="77" r="5" fill="#FF5F7E" />
    <circle cx="114" cy="77" r="5" fill="#FF5F7E" />
    <circle cx="60" cy="113" r="5" fill="#FF5F7E" />
    <circle cx="96" cy="113" r="5" fill="#FF5F7E" />
    <circle cx="78" cy="113" r="5" fill="#FF5F7E" />
    <circle cx="114" cy="113" r="5" fill="#FF5F7E" />
    <circle cx="60" cy="149" r="5" fill="#FF5F7E" />
    <circle cx="96" cy="149" r="5" fill="#FF5F7E" />
    <circle cx="78" cy="149" r="5" fill="#FF5F7E" />
    <circle cx="114" cy="149" r="5" fill="#FF5F7E" />
    <circle cx="60" cy="23" r="5" fill="#FF5F7E" />
    <circle cx="96" cy="23" r="5" fill="#FF5F7E" />
    <circle cx="78" cy="23" r="5" fill="#FF5F7E" />
    <circle cx="114" cy="23" r="5" fill="#FF5F7E" />
    <circle cx="60" cy="59" r="5" fill="#FF5F7E" />
    <circle cx="96" cy="59" r="5" fill="#FF5F7E" />
    <circle cx="78" cy="59" r="5" fill="#FF5F7E" />
    <circle cx="114" cy="59" r="5" fill="#FF5F7E" />
    <circle cx="60" cy="95" r="5" fill="#FF5F7E" />
    <circle cx="96" cy="95" r="5" fill="#FF5F7E" />
    <circle cx="78" cy="95" r="5" fill="#FF5F7E" />
    <circle cx="114" cy="95" r="5" fill="#FF5F7E" />
    <circle cx="60" cy="131" r="5" fill="#FF5F7E" />
    <circle cx="96" cy="131" r="5" fill="#FF5F7E" />
    <circle cx="78" cy="131" r="5" fill="#FF5F7E" />
    <circle cx="114" cy="131" r="5" fill="#FF5F7E" />
    <circle cx="60" cy="167" r="5" fill="#FF5F7E" />
    <circle cx="96" cy="167" r="5" fill="#FF5F7E" />
    <circle cx="78" cy="167" r="5" fill="#FF5F7E" />
    <circle cx="114" cy="167" r="5" fill="#FF5F7E" />
  </g>
  <path d="M0 349C70.1402 349 127 292.14 127 222H0V349Z" fill="#1A4A67" />
</svg>