<svg width="46" height="72" viewBox="0 0 46 72" fill="none" xmlns="http://www.w3.org/2000/svg">
  <path
    d="M20.6874 1C20.6874 0.585786 20.3516 0.25 19.9374 0.25C19.5232 0.25 19.1874 0.585786 19.1874 1H20.6874ZM7.18372 31.2214L6.48397 30.9515C6.46504 31.0006 6.45133 31.0515 6.44306 31.1034L7.18372 31.2214ZM23.6857 18.1496C23.6857 17.7353 23.3499 17.3996 22.9357 17.3996C22.5215 17.3996 22.1857 17.7353 22.1857 18.1496H23.6857ZM11.2614 18.1496H10.5114H11.2614ZM14.365 14.0815C14.7377 13.9008 14.8933 13.4522 14.7126 13.0795C14.5319 12.7068 14.0833 12.5511 13.7106 12.7318L14.365 14.0815ZM13.3418 21.4464C13.3418 21.0322 13.006 20.6964 12.5918 20.6964C12.1775 20.6964 11.8418 21.0322 11.8418 21.4464H13.3418ZM8.06267 47.4761C8.08445 47.8897 8.43742 48.2074 8.85106 48.1856C9.2647 48.1638 9.58237 47.8109 9.5606 47.3972L8.06267 47.4761ZM13.3008 71.07C13.3008 71.4842 13.6366 71.82 14.0508 71.82C14.4651 71.82 14.8008 71.4842 14.8008 71.07H13.3008ZM22.2269 71.07C22.2269 71.4842 22.5627 71.82 22.9769 71.82C23.3911 71.82 23.7269 71.4842 23.7269 71.07H22.2269ZM23.7269 43.2344V42.4844H22.2269V43.2344H23.7269ZM19.1874 1C19.1874 1.78323 19.0936 2.88912 18.5019 3.83884C17.9387 4.74295 16.8502 5.62218 14.6033 5.8349L14.7447 7.32822C17.3853 7.07822 18.9285 5.99089 19.7751 4.63201C20.5932 3.31874 20.6874 1.86521 20.6874 1H19.1874ZM14.6033 5.8349C12.2047 6.06199 10.263 6.39533 9.11354 8.04312C8.55382 8.84554 8.22979 9.89183 8.05762 11.2233C7.88517 12.557 7.85802 14.2378 7.93809 16.3559L9.43702 16.2993C9.35803 14.2095 9.38872 12.626 9.54524 11.4156C9.70203 10.2031 9.97809 9.42558 10.3438 8.90129C11.0453 7.89567 12.2558 7.56385 14.7447 7.32822L14.6033 5.8349ZM7.93809 16.3559C8.2538 24.7079 7.21658 29.0521 6.48397 30.9515L7.88347 31.4913C8.71253 29.3419 9.75755 24.7787 9.43702 16.2993L7.93809 16.3559ZM22.1857 18.1496C22.1857 18.3882 22.0832 18.787 21.8109 19.2851C21.5461 19.7695 21.1486 20.2957 20.6331 20.7812C19.6015 21.7528 18.1461 22.5184 16.4092 22.5184V24.0184C18.6054 24.0184 20.4133 23.0488 21.6616 21.8731C22.2861 21.285 22.7828 20.6345 23.1271 20.0046C23.464 19.3883 23.6857 18.7351 23.6857 18.1496H22.1857ZM16.4092 22.5184C14.8605 22.5184 13.7796 21.8235 13.0671 20.9259C12.3341 20.0025 12.0114 18.8861 12.0114 18.1496H10.5114C10.5114 19.235 10.9551 20.678 11.8923 21.8585C12.8499 23.0649 14.3429 24.0184 16.4092 24.0184V22.5184ZM12.0114 18.1496C12.0114 16.3233 12.765 14.8573 14.365 14.0815L13.7106 12.7318C11.4931 13.807 10.5114 15.8692 10.5114 18.1496H12.0114ZM11.8418 21.4464C11.8418 22.1194 12.0605 22.8403 12.3297 23.5369C12.6008 24.2381 12.9663 25.0178 13.3059 25.7865C14.0065 27.3723 14.6421 29.0149 14.6421 30.6482H16.1421C16.1421 28.6665 15.3775 26.7638 14.6779 25.1803C14.3175 24.3643 13.9829 23.6533 13.7289 22.9961C13.4731 22.3343 13.3418 21.8291 13.3418 21.4464H11.8418ZM6.44306 31.1034C6.12888 33.0756 6.39644 33.9657 6.78504 35.8974C7.17011 37.8115 7.71757 40.9201 8.06267 47.4761L9.5606 47.3972C9.21186 40.7722 8.6558 37.5909 8.25558 35.6015C7.8589 33.6297 7.65941 33.0027 7.92438 31.3394L6.44306 31.1034ZM14.6421 30.6482C14.6421 34.6398 13.1044 36.9878 11.4667 39.3756C9.81837 41.7789 8.02843 44.2659 8.02843 48.3616H9.52843C9.52843 44.78 11.0453 42.642 12.7038 40.224C14.3729 37.7903 16.1421 35.1202 16.1421 30.6482H14.6421ZM8.02843 48.3616C8.02843 52.3408 9.39065 56.6632 10.7026 60.6278C11.3654 62.6306 12.016 64.5413 12.5037 66.3216C12.9921 68.1047 13.3008 69.702 13.3008 71.07H14.8008C14.8008 69.5012 14.4505 67.7512 13.9504 65.9254C13.4495 64.0968 12.782 62.137 12.1267 60.1566C10.8024 56.1548 9.52843 52.0599 9.52843 48.3616H8.02843ZM23.7269 71.07V43.2344H22.2269V71.07H23.7269Z"
    fill="white" />
  <path
    d="M11.5071 40.4988C14.3745 42.1175 19.6932 42.4875 22.7919 42.4875V56.1773C20.6829 51.1453 12.6325 48.4074 8.87085 47.6674L11.5071 40.4988Z"
    fill="white" />
  <path
    d="M26.0626 1C26.0626 2.64844 26.4386 6.11884 31.3261 6.58156C36.2135 7.04428 37.6306 7.91188 37.3125 16.3276C36.9944 24.7433 38.0355 29.197 38.8163 31.2214C39.3955 34.8569 37.8823 34.2556 37.1884 47.4367M23.0644 18.1496C23.0644 19.798 25.6577 23.2684 29.5909 23.2684C33.2059 23.2684 34.7386 19.9715 34.7386 18.1496C34.7386 16.0962 33.871 14.3321 31.9623 13.4067M33.4083 21.4464C33.4083 23.5576 30.608 27.0332 30.608 30.6482C30.608 39.1118 37.2216 40.6843 37.2216 48.3616C37.2216 56.039 31.9492 65.1964 31.9492 71.07"
    stroke="white" stroke-width="1.5" stroke-linecap="round" stroke-linejoin="round" />
  <path
    d="M34.4929 40.4988C31.6254 42.1175 26.3068 42.4875 23.2081 42.4875V56.1773C25.317 51.1453 33.3675 48.4074 37.1291 47.6674L34.4929 40.4988Z"
    fill="white" />
</svg>