<svg width="40" height="40" viewBox="0 0 40 40" fill="none" xmlns="http://www.w3.org/2000/svg">
  <path
    d="M5.29456 24.1534L11.5694 25.1067L25.3887 11.9413L18.6783 25.9446L34.377 28.5661C34.6444 28.6068 34.9176 28.5825 35.1736 28.4952C35.4296 28.408 35.6608 28.2604 35.8478 28.065C36.0347 27.8695 36.1718 27.632 36.2475 27.3723C36.3231 27.1127 36.3352 26.8387 36.2826 26.5734L31.371 1.73535C31.3135 1.44805 31.1821 1.18069 30.9898 0.959581C30.7976 0.738471 30.551 0.571228 30.2745 0.474309C29.998 0.377391 29.701 0.354137 29.4127 0.406836C29.1245 0.459536 28.8549 0.586373 28.6306 0.774865L4.45968 21.2003C4.21341 21.4097 4.03248 21.6855 3.93841 21.9948C3.84434 22.3041 3.84108 22.6338 3.92902 22.9449C4.01696 23.256 4.19241 23.5352 4.43448 23.7495C4.67656 23.9637 4.97509 24.1039 5.29456 24.1534ZM18.0398 36.5773L24.8006 30.7276L16.0591 29.1851L18.0398 36.5773Z"
    fill="white" />
</svg>