<svg width="252" height="44" viewBox="0 0 252 44" fill="none" xmlns="http://www.w3.org/2000/svg">
  <path
    d="M5.29456 26.5575L11.5694 27.5107L25.3887 14.3453L18.6783 28.3486L34.377 30.9701C34.6444 31.0108 34.9176 30.9865 35.1736 30.8993C35.4296 30.8121 35.6608 30.6645 35.8478 30.469C36.0347 30.2736 36.1718 30.036 36.2475 29.7764C36.3231 29.5168 36.3352 29.2427 36.2826 28.9775L31.371 4.1394C31.3135 3.8521 31.1821 3.58474 30.9898 3.36363C30.7976 3.14252 30.551 2.97528 30.2745 2.87836C29.998 2.78144 29.701 2.75819 29.4127 2.81089C29.1245 2.86359 28.8549 2.99043 28.6306 3.17892L4.45968 23.6044C4.21341 23.8138 4.03248 24.0896 3.93841 24.3988C3.84434 24.7081 3.84108 25.0379 3.92902 25.349C4.01696 25.66 4.19241 25.9393 4.43448 26.1535C4.67656 26.3678 4.97509 26.508 5.29456 26.5575ZM18.0398 38.9814L24.8006 33.1316L16.0591 31.5891L18.0398 38.9814Z"
    fill="#1A4A67" />
  <path
    d="M69.5278 11.152L63.6078 34H59.0958L55.4798 20.88C55.3518 20.4533 55.2132 19.9093 55.0638 19.248C54.9145 18.5653 54.7758 17.904 54.6478 17.264C54.5198 16.624 54.4345 16.1547 54.3918 15.856C54.3492 16.1547 54.2638 16.624 54.1358 17.264C54.0292 17.8827 53.8905 18.5333 53.7198 19.216C53.5705 19.8987 53.4318 20.4747 53.3038 20.944L49.7838 34H45.2398L39.3518 11.152H43.4478L46.5838 24.176C46.7332 24.7307 46.8718 25.36 46.9998 26.064C47.1492 26.768 47.2878 27.472 47.4158 28.176C47.5438 28.8587 47.6398 29.456 47.7038 29.968C47.7678 29.4347 47.8638 28.816 47.9918 28.112C48.1198 27.408 48.2585 26.7253 48.4078 26.064C48.5572 25.3813 48.6958 24.8053 48.8238 24.336L52.4078 11.152H56.3758L60.0238 24.368C60.1732 24.8373 60.3225 25.424 60.4718 26.128C60.6212 26.8107 60.7598 27.4933 60.8878 28.176C61.0158 28.8587 61.1118 29.456 61.1758 29.968C61.2398 29.4347 61.3252 28.8267 61.4318 28.144C61.5598 27.4613 61.6985 26.768 61.8478 26.064C61.9972 25.36 62.1465 24.7307 62.2958 24.176L65.4318 11.152H69.5278ZM85.4986 34L83.4186 27.952H74.8106L72.7626 34H68.4106L76.7946 11.056H81.4666L89.8506 34H85.4986ZM80.3786 18.544C80.2933 18.2453 80.1653 17.84 79.9946 17.328C79.8239 16.816 79.6533 16.2933 79.4826 15.76C79.3333 15.2053 79.2159 14.7467 79.1306 14.384C79.0239 14.8107 78.8853 15.3013 78.7146 15.856C78.5653 16.4107 78.4159 16.9333 78.2666 17.424C78.1173 17.9147 78.0106 18.288 77.9466 18.544L75.9306 24.432H82.3626L80.3786 18.544ZM97.6051 21.232L102.821 11.152H107.237L99.6531 25.104V34H95.5571V25.264L87.9731 11.152H92.4211L97.6051 21.232ZM123.479 27.76C123.479 29.7867 122.743 31.3867 121.271 32.56C119.799 33.7333 117.762 34.32 115.159 34.32C112.642 34.32 110.508 33.8933 108.759 33.04V29.2C109.719 29.6267 110.775 30.0213 111.927 30.384C113.079 30.7253 114.252 30.896 115.447 30.896C116.812 30.896 117.815 30.6293 118.455 30.096C119.095 29.5627 119.415 28.8587 119.415 27.984C119.415 27.024 119.01 26.2667 118.199 25.712C117.388 25.1573 116.204 24.5493 114.647 23.888C113.708 23.4827 112.812 23.0027 111.959 22.448C111.106 21.8933 110.402 21.1893 109.847 20.336C109.292 19.4827 109.015 18.3947 109.015 17.072C109.015 15.1093 109.698 13.584 111.063 12.496C112.45 11.3867 114.295 10.832 116.599 10.832C117.815 10.832 118.946 10.96 119.991 11.216C121.058 11.472 122.124 11.8347 123.191 12.304L121.879 15.6C120.919 15.1947 120.002 14.8747 119.127 14.64C118.274 14.4053 117.388 14.288 116.471 14.288C115.362 14.288 114.519 14.544 113.943 15.056C113.367 15.5467 113.079 16.1867 113.079 16.976C113.079 17.616 113.239 18.1493 113.559 18.576C113.879 19.0027 114.37 19.3973 115.031 19.76C115.714 20.1227 116.588 20.5387 117.655 21.008C118.871 21.5413 119.916 22.096 120.791 22.672C121.666 23.248 122.327 23.9413 122.775 24.752C123.244 25.5627 123.479 26.5653 123.479 27.76ZM145.905 25.936C145.905 27.5147 145.564 28.944 144.881 30.224C144.22 31.4827 143.206 32.4853 141.841 33.232C140.476 33.9573 138.748 34.32 136.657 34.32C133.692 34.32 131.441 33.552 129.905 32.016C128.369 30.4587 127.601 28.4107 127.601 25.872V11.152H131.697V25.456C131.697 27.3333 132.124 28.6987 132.977 29.552C133.83 30.4053 135.1 30.832 136.785 30.832C138.556 30.832 139.836 30.3733 140.625 29.456C141.436 28.5173 141.841 27.1733 141.841 25.424V11.152H145.905V25.936ZM158.195 11.152C161.203 11.152 163.422 11.7067 164.851 12.816C166.302 13.9253 167.027 15.6107 167.027 17.872C167.027 18.9813 166.814 19.9307 166.387 20.72C165.982 21.5093 165.448 22.1707 164.787 22.704C164.126 23.216 163.411 23.632 162.643 23.952L169.203 34H164.595L159.123 24.976H155.795V34H151.699V11.152H158.195ZM157.939 14.576H155.795V21.616H158.067C159.752 21.616 160.968 21.3173 161.715 20.72C162.483 20.1013 162.867 19.1947 162.867 18C162.867 16.7627 162.462 15.888 161.651 15.376C160.862 14.8427 159.624 14.576 157.939 14.576ZM181.507 21.456H190.147V33.072C188.931 33.456 187.683 33.7653 186.403 34C185.123 34.2133 183.672 34.32 182.051 34.32C178.595 34.32 175.939 33.296 174.083 31.248C172.227 29.2 171.299 26.2987 171.299 22.544C171.299 20.176 171.757 18.1173 172.675 16.368C173.613 14.5973 174.968 13.232 176.739 12.272C178.509 11.312 180.664 10.832 183.203 10.832C184.44 10.832 185.635 10.96 186.787 11.216C187.96 11.472 189.027 11.8027 189.987 12.208L188.579 15.568C187.832 15.2267 186.989 14.928 186.051 14.672C185.112 14.416 184.131 14.288 183.107 14.288C181.549 14.288 180.205 14.6293 179.075 15.312C177.944 15.9947 177.069 16.9653 176.451 18.224C175.853 19.4613 175.555 20.9227 175.555 22.608C175.555 24.2293 175.789 25.6587 176.259 26.896C176.728 28.1333 177.475 29.104 178.499 29.808C179.523 30.512 180.856 30.864 182.499 30.864C183.309 30.864 183.992 30.8213 184.547 30.736C185.101 30.6507 185.624 30.5547 186.115 30.448V24.944H181.507V21.456ZM208.597 34H195.605V11.152H208.597V14.576H199.701V20.4H208.021V23.824H199.701V30.544H208.597V34ZM219.945 11.152C222.953 11.152 225.172 11.7067 226.601 12.816C228.052 13.9253 228.777 15.6107 228.777 17.872C228.777 18.9813 228.564 19.9307 228.137 20.72C227.732 21.5093 227.198 22.1707 226.537 22.704C225.876 23.216 225.161 23.632 224.393 23.952L230.953 34H226.345L220.873 24.976H217.545V34H213.449V11.152H219.945ZM219.689 14.576H217.545V21.616H219.817C221.502 21.616 222.718 21.3173 223.465 20.72C224.233 20.1013 224.617 19.1947 224.617 18C224.617 16.7627 224.212 15.888 223.401 15.376C222.612 14.8427 221.374 14.576 219.689 14.576ZM240.793 21.232L246.009 11.152H250.425L242.841 25.104V34H238.745V25.264L231.161 11.152H235.609L240.793 21.232Z"
    fill="#1A4A67" />
</svg>