<svg width="266" height="76" viewBox="0 0 266 76" fill="none" xmlns="http://www.w3.org/2000/svg">
  <path
    d="M104.327 18.2318C105.687 18.2318 106.757 18.5568 107.537 19.2068C108.317 19.8568 108.707 20.7518 108.707 21.8918C108.707 23.0318 108.317 23.9268 107.537 24.5768C106.757 25.2268 105.687 25.5518 104.327 25.5518H101.732V28.7318H100.232V18.2318H104.327ZM104.282 24.2468C105.232 24.2468 105.957 24.0468 106.457 23.6468C106.957 23.2368 107.207 22.6518 107.207 21.8918C107.207 21.1318 106.957 20.5518 106.457 20.1518C105.957 19.7418 105.232 19.5368 104.282 19.5368H101.732V24.2468H104.282ZM118.231 28.7318L115.966 25.5068C115.686 25.5268 115.466 25.5368 115.306 25.5368H112.711V28.7318H111.211V18.2318H115.306C116.666 18.2318 117.736 18.5568 118.516 19.2068C119.296 19.8568 119.686 20.7518 119.686 21.8918C119.686 22.7018 119.486 23.3918 119.086 23.9618C118.686 24.5318 118.116 24.9468 117.376 25.2068L119.866 28.7318H118.231ZM115.261 24.2618C116.211 24.2618 116.936 24.0568 117.436 23.6468C117.936 23.2368 118.186 22.6518 118.186 21.8918C118.186 21.1318 117.936 20.5518 117.436 20.1518C116.936 19.7418 116.211 19.5368 115.261 19.5368H112.711V24.2618H115.261ZM127.149 28.8518C126.089 28.8518 125.134 28.6218 124.284 28.1618C123.434 27.6918 122.764 27.0468 122.274 26.2268C121.794 25.4068 121.554 24.4918 121.554 23.4818C121.554 22.4718 121.794 21.5568 122.274 20.7368C122.764 19.9168 123.434 19.2768 124.284 18.8168C125.134 18.3468 126.089 18.1118 127.149 18.1118C128.199 18.1118 129.149 18.3468 129.999 18.8168C130.849 19.2768 131.514 19.9168 131.994 20.7368C132.474 21.5468 132.714 22.4618 132.714 23.4818C132.714 24.5018 132.474 25.4218 131.994 26.2418C131.514 27.0518 130.849 27.6918 129.999 28.1618C129.149 28.6218 128.199 28.8518 127.149 28.8518ZM127.149 27.5168C127.919 27.5168 128.609 27.3418 129.219 26.9918C129.839 26.6418 130.324 26.1618 130.674 25.5518C131.034 24.9318 131.214 24.2418 131.214 23.4818C131.214 22.7218 131.034 22.0368 130.674 21.4268C130.324 20.8068 129.839 20.3218 129.219 19.9718C128.609 19.6218 127.919 19.4468 127.149 19.4468C126.379 19.4468 125.679 19.6218 125.049 19.9718C124.429 20.3218 123.939 20.8068 123.579 21.4268C123.229 22.0368 123.054 22.7218 123.054 23.4818C123.054 24.2418 123.229 24.9318 123.579 25.5518C123.939 26.1618 124.429 26.6418 125.049 26.9918C125.679 27.3418 126.379 27.5168 127.149 27.5168ZM136.807 19.5368V23.1968H142.072V24.4868H136.807V28.7318H135.307V18.2318H142.717V19.5368H136.807ZM145.117 28.8218C144.837 28.8218 144.597 28.7268 144.397 28.5368C144.197 28.3368 144.097 28.0868 144.097 27.7868C144.097 27.4968 144.197 27.2568 144.397 27.0668C144.597 26.8668 144.837 26.7668 145.117 26.7668C145.397 26.7668 145.632 26.8618 145.822 27.0518C146.012 27.2418 146.107 27.4868 146.107 27.7868C146.107 28.0868 146.007 28.3368 145.807 28.5368C145.617 28.7268 145.387 28.8218 145.117 28.8218ZM148.68 18.2318H153.105C154.215 18.2318 155.2 18.4518 156.06 18.8918C156.92 19.3318 157.585 19.9518 158.055 20.7518C158.535 21.5418 158.775 22.4518 158.775 23.4818C158.775 24.5118 158.535 25.4268 158.055 26.2268C157.585 27.0168 156.92 27.6318 156.06 28.0718C155.2 28.5118 154.215 28.7318 153.105 28.7318H148.68V18.2318ZM153.015 27.4268C153.865 27.4268 154.61 27.2618 155.25 26.9318C155.9 26.6018 156.4 26.1418 156.75 25.5518C157.1 24.9518 157.275 24.2618 157.275 23.4818C157.275 22.7018 157.1 22.0168 156.75 21.4268C156.4 20.8268 155.9 20.3618 155.25 20.0318C154.61 19.7018 153.865 19.5368 153.015 19.5368H150.18V27.4268H153.015ZM168.393 28.7318L166.128 25.5068C165.848 25.5268 165.628 25.5368 165.468 25.5368H162.873V28.7318H161.373V18.2318H165.468C166.828 18.2318 167.898 18.5568 168.678 19.2068C169.458 19.8568 169.848 20.7518 169.848 21.8918C169.848 22.7018 169.648 23.3918 169.248 23.9618C168.848 24.5318 168.278 24.9468 167.538 25.2068L170.028 28.7318H168.393ZM165.423 24.2618C166.373 24.2618 167.098 24.0568 167.598 23.6468C168.098 23.2368 168.348 22.6518 168.348 21.8918C168.348 21.1318 168.098 20.5518 167.598 20.1518C167.098 19.7418 166.373 19.5368 165.423 19.5368H162.873V24.2618H165.423ZM172.706 28.8218C172.426 28.8218 172.186 28.7268 171.986 28.5368C171.786 28.3368 171.686 28.0868 171.686 27.7868C171.686 27.4968 171.786 27.2568 171.986 27.0668C172.186 26.8668 172.426 26.7668 172.706 26.7668C172.986 26.7668 173.221 26.8618 173.411 27.0518C173.601 27.2418 173.696 27.4868 173.696 27.7868C173.696 28.0868 173.596 28.3368 173.396 28.5368C173.206 28.7268 172.976 28.8218 172.706 28.8218ZM104.942 43.0118V46.7318H102.512V42.9818L98.4472 36.2318H101.027L103.832 40.8968L106.637 36.2318H109.022L104.942 43.0118ZM114.857 46.9118C113.357 46.9118 112.187 46.4968 111.347 45.6668C110.517 44.8368 110.102 43.6518 110.102 42.1118V36.2318H112.532V42.0218C112.532 43.9018 113.312 44.8418 114.872 44.8418C115.632 44.8418 116.212 44.6168 116.612 44.1668C117.012 43.7068 117.212 42.9918 117.212 42.0218V36.2318H119.612V42.1118C119.612 43.6518 119.192 44.8368 118.352 45.6668C117.522 46.4968 116.357 46.9118 114.857 46.9118ZM125.764 46.9118C124.934 46.9118 124.129 46.8018 123.349 46.5818C122.579 46.3518 121.959 46.0568 121.489 45.6968L122.314 43.8668C122.764 44.1968 123.299 44.4618 123.919 44.6618C124.539 44.8618 125.159 44.9618 125.779 44.9618C126.469 44.9618 126.979 44.8618 127.309 44.6618C127.639 44.4518 127.804 44.1768 127.804 43.8368C127.804 43.5868 127.704 43.3818 127.504 43.2218C127.314 43.0518 127.064 42.9168 126.754 42.8168C126.454 42.7168 126.044 42.6068 125.524 42.4868C124.724 42.2968 124.069 42.1068 123.559 41.9168C123.049 41.7268 122.609 41.4218 122.239 41.0018C121.879 40.5818 121.699 40.0218 121.699 39.3218C121.699 38.7118 121.864 38.1618 122.194 37.6718C122.524 37.1718 123.019 36.7768 123.679 36.4868C124.349 36.1968 125.164 36.0518 126.124 36.0518C126.794 36.0518 127.449 36.1318 128.089 36.2918C128.729 36.4518 129.289 36.6818 129.769 36.9818L129.019 38.8268C128.049 38.2768 127.079 38.0018 126.109 38.0018C125.429 38.0018 124.924 38.1118 124.594 38.3318C124.274 38.5518 124.114 38.8418 124.114 39.2018C124.114 39.5618 124.299 39.8318 124.669 40.0118C125.049 40.1818 125.624 40.3518 126.394 40.5218C127.194 40.7118 127.849 40.9018 128.359 41.0918C128.869 41.2818 129.304 41.5818 129.664 41.9918C130.034 42.4018 130.219 42.9568 130.219 43.6568C130.219 44.2568 130.049 44.8068 129.709 45.3068C129.379 45.7968 128.879 46.1868 128.209 46.4768C127.539 46.7668 126.724 46.9118 125.764 46.9118ZM136.844 46.9118C135.344 46.9118 134.174 46.4968 133.334 45.6668C132.504 44.8368 132.089 43.6518 132.089 42.1118V36.2318H134.519V42.0218C134.519 43.9018 135.299 44.8418 136.859 44.8418C137.619 44.8418 138.199 44.6168 138.599 44.1668C138.999 43.7068 139.199 42.9918 139.199 42.0218V36.2318H141.599V42.1118C141.599 43.6518 141.179 44.8368 140.339 45.6668C139.509 46.4968 138.344 46.9118 136.844 46.9118ZM146.73 38.1818V40.9568H151.59V42.9068H146.73V46.7318H144.3V36.2318H152.235V38.1818H146.73ZM163.811 36.2318V46.7318H161.381V42.4268H156.611V46.7318H154.181V36.2318H156.611V40.3718H161.381V36.2318H163.811ZM173.51 44.4818H168.635L167.705 46.7318H165.215L169.895 36.2318H172.295L176.99 46.7318H174.44L173.51 44.4818ZM172.745 42.6368L171.08 38.6168L169.415 42.6368H172.745ZM188.009 36.2318V46.7318H186.014L180.779 40.3568V46.7318H178.379V36.2318H180.389L185.609 42.6068V36.2318H188.009Z"
    fill="#828282" fill-opacity="0.7" />
  <path
    d="M198.512 46.8518C197.722 46.8518 196.957 46.7318 196.217 46.4918C195.487 46.2418 194.912 45.9218 194.492 45.5318L195.047 44.3618C195.447 44.7218 195.957 45.0168 196.577 45.2468C197.207 45.4668 197.852 45.5768 198.512 45.5768C199.382 45.5768 200.032 45.4318 200.462 45.1418C200.892 44.8418 201.107 44.4468 201.107 43.9568C201.107 43.5968 200.987 43.3068 200.747 43.0868C200.517 42.8568 200.227 42.6818 199.877 42.5618C199.537 42.4418 199.052 42.3068 198.422 42.1568C197.632 41.9668 196.992 41.7768 196.502 41.5868C196.022 41.3968 195.607 41.1068 195.257 40.7168C194.917 40.3168 194.747 39.7818 194.747 39.1118C194.747 38.5518 194.892 38.0468 195.182 37.5968C195.482 37.1468 195.932 36.7868 196.532 36.5168C197.132 36.2468 197.877 36.1118 198.767 36.1118C199.387 36.1118 199.997 36.1918 200.597 36.3518C201.197 36.5118 201.712 36.7418 202.142 37.0418L201.647 38.2418C201.207 37.9618 200.737 37.7518 200.237 37.6118C199.737 37.4618 199.247 37.3868 198.767 37.3868C197.917 37.3868 197.277 37.5418 196.847 37.8518C196.427 38.1618 196.217 38.5618 196.217 39.0518C196.217 39.4118 196.337 39.7068 196.577 39.9368C196.817 40.1568 197.112 40.3318 197.462 40.4618C197.822 40.5818 198.307 40.7118 198.917 40.8518C199.707 41.0418 200.342 41.2318 200.822 41.4218C201.302 41.6118 201.712 41.9018 202.052 42.2918C202.402 42.6818 202.577 43.2068 202.577 43.8668C202.577 44.4168 202.427 44.9218 202.127 45.3818C201.827 45.8318 201.372 46.1918 200.762 46.4618C200.152 46.7218 199.402 46.8518 198.512 46.8518ZM209.418 46.8518C208.018 46.8518 206.928 46.4518 206.148 45.6518C205.368 44.8518 204.978 43.7018 204.978 42.2018V36.2318H206.478V42.1418C206.478 44.3918 207.463 45.5168 209.433 45.5168C210.393 45.5168 211.128 45.2418 211.638 44.6918C212.148 44.1318 212.403 43.2818 212.403 42.1418V36.2318H213.858V42.2018C213.858 43.7118 213.468 44.8668 212.688 45.6668C211.908 46.4568 210.818 46.8518 209.418 46.8518ZM208.038 35.1218C207.828 35.1218 207.648 35.0518 207.498 34.9118C207.348 34.7618 207.273 34.5768 207.273 34.3568C207.273 34.1368 207.348 33.9518 207.498 33.8018C207.648 33.6518 207.828 33.5768 208.038 33.5768C208.248 33.5768 208.428 33.6518 208.578 33.8018C208.728 33.9518 208.803 34.1368 208.803 34.3568C208.803 34.5768 208.728 34.7618 208.578 34.9118C208.428 35.0518 208.248 35.1218 208.038 35.1218ZM210.828 35.1218C210.618 35.1218 210.438 35.0518 210.288 34.9118C210.138 34.7618 210.063 34.5768 210.063 34.3568C210.063 34.1368 210.138 33.9518 210.288 33.8018C210.438 33.6518 210.618 33.5768 210.828 33.5768C211.038 33.5768 211.218 33.6518 211.368 33.8018C211.518 33.9518 211.593 34.1368 211.593 34.3568C211.593 34.5768 211.518 34.7618 211.368 34.9118C211.218 35.0518 211.038 35.1218 210.828 35.1218ZM221.973 46.8518C220.913 46.8518 219.958 46.6218 219.108 46.1618C218.258 45.6918 217.588 45.0468 217.098 44.2268C216.618 43.4068 216.378 42.4918 216.378 41.4818C216.378 40.4718 216.618 39.5568 217.098 38.7368C217.588 37.9168 218.258 37.2768 219.108 36.8168C219.958 36.3468 220.913 36.1118 221.973 36.1118C223.023 36.1118 223.973 36.3468 224.823 36.8168C225.673 37.2768 226.338 37.9168 226.818 38.7368C227.298 39.5468 227.538 40.4618 227.538 41.4818C227.538 42.5018 227.298 43.4218 226.818 44.2418C226.338 45.0518 225.673 45.6918 224.823 46.1618C223.973 46.6218 223.023 46.8518 221.973 46.8518ZM221.973 45.5168C222.743 45.5168 223.433 45.3418 224.043 44.9918C224.663 44.6418 225.148 44.1618 225.498 43.5518C225.858 42.9318 226.038 42.2418 226.038 41.4818C226.038 40.7218 225.858 40.0368 225.498 39.4268C225.148 38.8068 224.663 38.3218 224.043 37.9718C223.433 37.6218 222.743 37.4468 221.973 37.4468C221.203 37.4468 220.503 37.6218 219.873 37.9718C219.253 38.3218 218.763 38.8068 218.403 39.4268C218.053 40.0368 217.878 40.7218 217.878 41.4818C217.878 42.2418 218.053 42.9318 218.403 43.5518C218.763 44.1618 219.253 44.6418 219.873 44.9918C220.503 45.3418 221.203 45.5168 221.973 45.5168ZM237.406 41.4218H238.846V45.5168C238.326 45.9468 237.721 46.2768 237.031 46.5068C236.341 46.7368 235.621 46.8518 234.871 46.8518C233.811 46.8518 232.856 46.6218 232.006 46.1618C231.156 45.6918 230.486 45.0518 229.996 44.2418C229.516 43.4218 229.276 42.5018 229.276 41.4818C229.276 40.4618 229.516 39.5418 229.996 38.7218C230.486 37.9018 231.156 37.2618 232.006 36.8018C232.866 36.3418 233.831 36.1118 234.901 36.1118C235.741 36.1118 236.501 36.2518 237.181 36.5318C237.871 36.8018 238.456 37.2018 238.936 37.7318L238.006 38.6618C237.166 37.8518 236.151 37.4468 234.961 37.4468C234.161 37.4468 233.441 37.6218 232.801 37.9718C232.171 38.3118 231.676 38.7918 231.316 39.4118C230.956 40.0218 230.776 40.7118 230.776 41.4818C230.776 42.2418 230.956 42.9318 231.316 43.5518C231.676 44.1618 232.171 44.6418 232.801 44.9918C233.441 45.3418 234.156 45.5168 234.946 45.5168C235.886 45.5168 236.706 45.2918 237.406 44.8418V41.4218ZM234.706 35.4668C234.016 35.4668 233.441 35.2818 232.981 34.9118C232.531 34.5418 232.296 34.0468 232.276 33.4268H233.251C233.261 33.7868 233.401 34.0768 233.671 34.2968C233.951 34.5168 234.296 34.6268 234.706 34.6268C235.116 34.6268 235.456 34.5168 235.726 34.2968C236.006 34.0768 236.151 33.7868 236.161 33.4268H237.136C237.116 34.0468 236.876 34.5418 236.416 34.9118C235.966 35.2818 235.396 35.4668 234.706 35.4668ZM242.018 36.2318H243.518V45.4268H249.203V46.7318H242.018V36.2318ZM255.398 46.8518C253.998 46.8518 252.908 46.4518 252.128 45.6518C251.348 44.8518 250.958 43.7018 250.958 42.2018V36.2318H252.458V42.1418C252.458 44.3918 253.443 45.5168 255.413 45.5168C256.373 45.5168 257.108 45.2418 257.618 44.6918C258.128 44.1318 258.383 43.2818 258.383 42.1418V36.2318H259.838V42.2018C259.838 43.7118 259.448 44.8668 258.668 45.6668C257.888 46.4568 256.798 46.8518 255.398 46.8518Z"
    fill="#A0A0A0" fill-opacity="0.7" />
  <path
    d="M50.8442 14.6799C54.3725 8.05884 61.7232 5.773 64.9575 5.45771C51.9531 2.24177 44.2495 11.6058 42.0233 16.6898C36.3527 27.6194 28.7416 51.9942 25.0116 59.8449C21.2817 67.6955 14.1326 70.2888 11.0243 70.6041C25.6417 73.4417 31.8341 61.5868 35.0926 53.6968C38.999 44.2382 47.3158 21.3009 50.8442 14.6799Z"
    fill="#828282" fill-opacity="0.7" />
  <path
    d="M30.1781 42.9376C26.6498 54.0042 24.3816 56.8891 21.6093 59.8449C25.3393 54.3588 26.3978 47.3122 30.1781 35.8436L8 18.9363L15.9388 16.6898L32.8244 29.459C37.8649 17.754 41.5192 11.3694 45.4256 9.24119C41.6453 12.0788 34.5886 29.1043 30.1781 42.9376Z"
    fill="#828282" fill-opacity="0.7" />
  <path
    d="M56.9473 19.2694C56.9473 11.7025 64.172 8.62845 67.7844 8.03728C62.4078 7.05201 51.6548 10.4019 51.6548 21.8705C51.6548 38.6596 83.6619 49.3006 83.6619 58.1681C83.6619 65.262 76.9833 69.5578 73.5809 71.0555C83.6619 71.0555 90.7186 64.4344 90.7186 56.0399C90.7186 44.0983 56.9473 35.3491 56.9473 19.2694Z"
    fill="#A0A0A0" fill-opacity="0.7" />
  <path
    d="M62.7439 67.3902C65.5978 65.7836 68.4984 65.3015 69.6745 65.3803C64.256 62.7792 59.4676 69.2184 55.1831 68.9273C51.7556 68.6944 51.7388 64.8891 52.1588 63.0156C50.3947 66.3261 51.6548 69.8731 54.5531 70.1096C57.4405 70.3452 59.5936 69.1637 62.7439 67.3902Z"
    fill="#A0A0A0" fill-opacity="0.7" />
</svg>