<svg width="269" height="100" viewBox="0 0 269 100" fill="none" xmlns="http://www.w3.org/2000/svg">
  <path
    d="M29.7261 80.5423C28.6737 80.0158 28.5202 74.07 28.575 71.163C32.1926 67.0492 46.8276 60.4672 51.9251 61.2899C54.0628 61.635 57.0227 67.6992 57.0227 69.3529C57.0227 70.9984 55.3784 71.2178 54.5562 71.3275L54.5561 71.3275C55.7072 70.3951 56.3649 68.2011 52.9118 68.5301C48.8521 68.917 35.7555 76.5383 29.7261 80.5423Z"
    fill="#919191" />
  <path
    d="M18.8733 56.0244C17.5578 55.2345 18.3251 54.0498 18.8733 53.5561C32.8503 44.835 46.9921 43.8477 50.4453 43.8477H50.4454C54.5563 43.8477 63.5839 43.8477 63.7647 47.4677C64.1594 55.3661 60.5308 57.8344 58.6672 57.6699C60.3117 56.8471 63.9292 52.8979 50.4453 52.8979C39.6582 52.8979 28.3011 59.1508 23.9709 62.2773C23.4776 59.809 20.5176 57.0117 18.8733 56.0244Z"
    fill="#919191" />
  <path
    d="M67.8764 82.1889C68.1395 83.7686 67.109 84.6023 66.5609 84.8217C68.3697 84.4926 68.863 83.0117 68.863 81.2016C68.863 79.3916 65.4098 72.1514 56.8591 72.1514C47.1573 72.1514 31.8646 86.7963 26.4382 86.7963C21.3407 86.7963 19.8059 80.9274 20.1896 78.2397C14.5987 77.5815 10.3234 80.0498 10.3234 82.1889C10.3234 87.7836 17.5586 95.5175 21.9984 95.5175C23.9717 95.5175 28.4115 96.0111 39.7576 88.4418C51.1038 80.8725 59.1612 77.5815 62.2855 77.5815C65.4098 77.5815 67.5475 80.2143 67.8764 82.1889Z"
    fill="#919191" />
  <path
    d="M52.7483 33.9753C55.774 33.9753 58.1748 35.4014 58.9969 36.1145C62.7789 33.3171 62.4053 26.7351 61.9569 25.7478C61.1347 23.9378 55.5438 23.2796 51.7618 23.2796C38.6068 23.2796 18.7099 34.9626 15.4211 36.7727C13.9412 37.5872 9.9399 37.5954 8.84365 37.1018C8.9752 38.9448 9.88508 40.0637 10.3236 40.3928C8.87654 41.5776 9.28212 42.861 9.66579 43.3547C7.82409 46.7773 8.56954 49.1688 9.17247 49.9367C37.6201 34.469 48.9663 33.9753 52.7483 33.9753Z"
    fill="#919191" />
  <path
    d="M18.0521 28.2161C15.2896 28.611 13.1738 27.7224 12.4613 27.2288L16.5722 24.1023V20.6468C27.5895 8.79915 43.8688 7.6473 47.6508 8.47005C50.6765 9.12825 53.4061 12.6935 54.3927 14.3939C41.7311 11.7611 21.5053 27.7224 18.0521 28.2161Z"
    fill="#919191" />
  <path
    d="M35.318 5.17904C30.5822 5.31068 27.7539 9.4025 26.9317 11.4319C23.643 11.1687 20.9572 13.4065 20.0254 14.5584C20.2885 12.0673 22.8756 10.6683 24.1363 10.2801C25.8465 4.09301 32.3034 4.30144 35.318 5.17904Z"
    fill="#919191" />
  <path
    d="M95.5468 14.1849H92.9068V13.2279H99.2758V14.1849H96.6358V20.9279H95.5468V14.1849ZM107.316 13.2279V20.9279H106.216V17.4959H101.794V20.9279H100.694V13.2279H101.794V16.5389H106.216V13.2279H107.316ZM115.429 19.9709V20.9279H109.841V13.2279H115.275V14.1849H110.941V16.5499H114.802V17.4849H110.941V19.9709H115.429ZM126.192 19.9709V20.9279H120.604V13.2279H126.038V14.1849H121.704V16.5499H125.565V17.4849H121.704V19.9709H126.192ZM131.383 21.0159C130.356 21.0159 129.557 20.7225 128.985 20.1359C128.413 19.5492 128.127 18.7059 128.127 17.6059V13.2279H129.227V17.5619C129.227 19.2119 129.949 20.0369 131.394 20.0369C132.098 20.0369 132.637 19.8352 133.011 19.4319C133.385 19.0212 133.572 18.3979 133.572 17.5619V13.2279H134.639V17.6059C134.639 18.7132 134.353 19.5602 133.781 20.1469C133.209 20.7262 132.41 21.0159 131.383 21.0159ZM142.262 20.9279L140.601 18.5629C140.396 18.5775 140.234 18.5849 140.117 18.5849H138.214V20.9279H137.114V13.2279H140.117C141.114 13.2279 141.899 13.4662 142.471 13.9429C143.043 14.4195 143.329 15.0759 143.329 15.9119C143.329 16.5059 143.182 17.0119 142.889 17.4299C142.596 17.8479 142.178 18.1522 141.635 18.3429L143.461 20.9279H142.262ZM140.084 17.6499C140.781 17.6499 141.312 17.4995 141.679 17.1989C142.046 16.8982 142.229 16.4692 142.229 15.9119C142.229 15.3545 142.046 14.9292 141.679 14.6359C141.312 14.3352 140.781 14.1849 140.084 14.1849H138.214V17.6499H140.084ZM148.802 21.0159C148.025 21.0159 147.325 20.8472 146.701 20.5099C146.078 20.1652 145.587 19.6922 145.227 19.0909C144.875 18.4895 144.699 17.8185 144.699 17.0779C144.699 16.3372 144.875 15.6662 145.227 15.0649C145.587 14.4635 146.078 13.9942 146.701 13.6569C147.325 13.3122 148.025 13.1399 148.802 13.1399C149.572 13.1399 150.269 13.3122 150.892 13.6569C151.516 13.9942 152.003 14.4635 152.355 15.0649C152.707 15.6589 152.883 16.3299 152.883 17.0779C152.883 17.8259 152.707 18.5005 152.355 19.1019C152.003 19.6959 151.516 20.1652 150.892 20.5099C150.269 20.8472 149.572 21.0159 148.802 21.0159ZM148.802 20.0369C149.367 20.0369 149.873 19.9085 150.32 19.6519C150.775 19.3952 151.131 19.0432 151.387 18.5959C151.651 18.1412 151.783 17.6352 151.783 17.0779C151.783 16.5205 151.651 16.0182 151.387 15.5709C151.131 15.1162 150.775 14.7605 150.32 14.5039C149.873 14.2472 149.367 14.1189 148.802 14.1189C148.238 14.1189 147.724 14.2472 147.262 14.5039C146.808 14.7605 146.448 15.1162 146.184 15.5709C145.928 16.0182 145.799 16.5205 145.799 17.0779C145.799 17.6352 145.928 18.1412 146.184 18.5959C146.448 19.0432 146.808 19.3952 147.262 19.6519C147.724 19.9085 148.238 20.0369 148.802 20.0369ZM157.788 13.2279C158.785 13.2279 159.57 13.4662 160.142 13.9429C160.714 14.4195 161 15.0759 161 15.9119C161 16.7479 160.714 17.4042 160.142 17.8809C159.57 18.3575 158.785 18.5959 157.788 18.5959H155.885V20.9279H154.785V13.2279H157.788ZM157.755 17.6389C158.451 17.6389 158.983 17.4922 159.35 17.1989C159.716 16.8982 159.9 16.4692 159.9 15.9119C159.9 15.3545 159.716 14.9292 159.35 14.6359C158.983 14.3352 158.451 14.1849 157.755 14.1849H155.885V17.6389H157.755ZM168.424 19.9709V20.9279H162.836V13.2279H168.27V14.1849H163.936V16.5499H167.797V17.4849H163.936V19.9709H168.424ZM175.331 19.0029H171.239L170.392 20.9279H169.259L172.746 13.2279H173.835L177.333 20.9279H176.178L175.331 19.0029ZM174.946 18.1229L173.285 14.3499L171.624 18.1229H174.946ZM185.323 13.2279V20.9279H184.421L179.801 15.1859V20.9279H178.701V13.2279H179.603L184.223 18.9699V13.2279H185.323ZM195.928 19.0029H191.836L190.989 20.9279H189.856L193.343 13.2279H194.432L197.93 20.9279H196.775L195.928 19.0029ZM195.543 18.1229L193.882 14.3499L192.221 18.1229H195.543ZM202.635 21.0159C201.865 21.0159 201.168 20.8472 200.545 20.5099C199.929 20.1652 199.445 19.6959 199.093 19.1019C198.741 18.5005 198.565 17.8259 198.565 17.0779C198.565 16.3299 198.741 15.6589 199.093 15.0649C199.445 14.4635 199.932 13.9942 200.556 13.6569C201.179 13.3122 201.876 13.1399 202.646 13.1399C203.247 13.1399 203.797 13.2425 204.296 13.4479C204.794 13.6459 205.22 13.9429 205.572 14.3389L204.857 15.0319C204.277 14.4232 203.555 14.1189 202.69 14.1189C202.118 14.1189 201.601 14.2472 201.139 14.5039C200.677 14.7605 200.314 15.1162 200.05 15.5709C199.793 16.0182 199.665 16.5205 199.665 17.0779C199.665 17.6352 199.793 18.1412 200.05 18.5959C200.314 19.0432 200.677 19.3952 201.139 19.6519C201.601 19.9085 202.118 20.0369 202.69 20.0369C203.548 20.0369 204.27 19.7289 204.857 19.1129L205.572 19.8059C205.22 20.2019 204.791 20.5025 204.285 20.7079C203.786 20.9132 203.236 21.0159 202.635 21.0159ZM212.084 19.0029H207.992L207.145 20.9279H206.012L209.499 13.2279H210.588L214.086 20.9279H212.931L212.084 19.0029ZM211.699 18.1229L210.038 14.3499L208.377 18.1229H211.699ZM215.455 13.2279H218.7C219.514 13.2279 220.236 13.3892 220.867 13.7119C221.497 14.0345 221.985 14.4892 222.33 15.0759C222.682 15.6552 222.858 16.3225 222.858 17.0779C222.858 17.8332 222.682 18.5042 222.33 19.0909C221.985 19.6702 221.497 20.1212 220.867 20.4439C220.236 20.7665 219.514 20.9279 218.7 20.9279H215.455V13.2279ZM218.634 19.9709C219.257 19.9709 219.803 19.8499 220.273 19.6079C220.749 19.3659 221.116 19.0285 221.373 18.5959C221.629 18.1559 221.758 17.6499 221.758 17.0779C221.758 16.5059 221.629 16.0035 221.373 15.5709C221.116 15.1309 220.749 14.7899 220.273 14.5479C219.803 14.3059 219.257 14.1849 218.634 14.1849H216.555V19.9709H218.634ZM230.351 19.9709V20.9279H224.763V13.2279H230.197V14.1849H225.863V16.5499H229.724V17.4849H225.863V19.9709H230.351ZM239.491 20.9279L239.48 15.3179L236.697 19.9929H236.191L233.408 15.3509V20.9279H232.352V13.2279H233.254L236.466 18.6399L239.634 13.2279H240.536L240.547 20.9279H239.491ZM246.026 18.2659V20.9279H244.937V18.2439L241.879 13.2279H243.056L245.52 17.2869L247.995 13.2279H249.084L246.026 18.2659ZM97.4938 34.0159C96.7165 34.0159 96.0161 33.8472 95.3928 33.5099C94.7695 33.1652 94.2781 32.6922 93.9188 32.0909C93.5668 31.4895 93.3908 30.8185 93.3908 30.0779C93.3908 29.3372 93.5668 28.6662 93.9188 28.0649C94.2781 27.4635 94.7695 26.9942 95.3928 26.6569C96.0161 26.3122 96.7165 26.1399 97.4938 26.1399C98.2638 26.1399 98.9605 26.3122 99.5838 26.6569C100.207 26.9942 100.695 27.4635 101.047 28.0649C101.399 28.6589 101.575 29.3299 101.575 30.0779C101.575 30.8259 101.399 31.5005 101.047 32.1019C100.695 32.6959 100.207 33.1652 99.5838 33.5099C98.9605 33.8472 98.2638 34.0159 97.4938 34.0159ZM97.4938 33.0369C98.0585 33.0369 98.5645 32.9085 99.0118 32.6519C99.4665 32.3952 99.8221 32.0432 100.079 31.5959C100.343 31.1412 100.475 30.6352 100.475 30.0779C100.475 29.5205 100.343 29.0182 100.079 28.5709C99.8221 28.1162 99.4665 27.7605 99.0118 27.5039C98.5645 27.2472 98.0585 27.1189 97.4938 27.1189C96.9291 27.1189 96.4158 27.2472 95.9538 27.5039C95.4991 27.7605 95.1398 28.1162 94.8758 28.5709C94.6191 29.0182 94.4908 29.5205 94.4908 30.0779C94.4908 30.6352 94.6191 31.1412 94.8758 31.5959C95.1398 32.0432 95.4991 32.3952 95.9538 32.6519C96.4158 32.9085 96.9291 33.0369 97.4938 33.0369ZM104.576 27.1849V29.8689H108.437V30.8149H104.576V33.9279H103.476V26.2279H108.91V27.1849H104.576ZM114.953 27.1849V29.8689H118.814V30.8149H114.953V33.9279H113.853V26.2279H119.287V27.1849H114.953ZM125.607 32.0029H121.515L120.668 33.9279H119.535L123.022 26.2279H124.111L127.609 33.9279H126.454L125.607 32.0029ZM125.222 31.1229L123.561 27.3499L121.9 31.1229H125.222ZM132.313 34.0159C131.543 34.0159 130.846 33.8472 130.223 33.5099C129.607 33.1652 129.123 32.6959 128.771 32.1019C128.419 31.5005 128.243 30.8259 128.243 30.0779C128.243 29.3299 128.419 28.6589 128.771 28.0649C129.123 27.4635 129.61 26.9942 130.234 26.6569C130.857 26.3122 131.554 26.1399 132.324 26.1399C132.925 26.1399 133.475 26.2425 133.974 26.4479C134.472 26.6459 134.898 26.9429 135.25 27.3389L134.535 28.0319C133.955 27.4232 133.233 27.1189 132.368 27.1189C131.796 27.1189 131.279 27.2472 130.817 27.5039C130.355 27.7605 129.992 28.1162 129.728 28.5709C129.471 29.0182 129.343 29.5205 129.343 30.0779C129.343 30.6352 129.471 31.1412 129.728 31.5959C129.992 32.0432 130.355 32.3952 130.817 32.6519C131.279 32.9085 131.796 33.0369 132.368 33.0369C133.226 33.0369 133.948 32.7289 134.535 32.1129L135.25 32.8059C134.898 33.2019 134.469 33.5025 133.963 33.7079C133.464 33.9132 132.914 34.0159 132.313 34.0159ZM137.039 26.2279H138.139V33.9279H137.039V26.2279ZM145.57 32.0029H141.478L140.631 33.9279H139.498L142.985 26.2279H144.074L147.572 33.9279H146.417L145.57 32.0029ZM145.185 31.1229L143.524 27.3499L141.863 31.1229H145.185ZM148.941 26.2279H150.041V32.9709H154.21V33.9279H148.941V26.2279ZM161.869 26.2279C162.867 26.2279 163.651 26.4662 164.223 26.9429C164.795 27.4195 165.081 28.0759 165.081 28.9119C165.081 29.7479 164.795 30.4042 164.223 30.8809C163.651 31.3575 162.867 31.5959 161.869 31.5959H159.966V33.9279H158.866V26.2279H161.869ZM161.836 30.6389C162.533 30.6389 163.065 30.4922 163.431 30.1989C163.798 29.8982 163.981 29.4692 163.981 28.9119C163.981 28.3545 163.798 27.9292 163.431 27.6359C163.065 27.3352 162.533 27.1849 161.836 27.1849H159.966V30.6389H161.836ZM166.917 26.2279H168.017V32.9709H172.186V33.9279H166.917V26.2279ZM178.607 32.0029H174.515L173.668 33.9279H172.535L176.022 26.2279H177.111L180.609 33.9279H179.454L178.607 32.0029ZM178.222 31.1229L176.561 27.3499L174.9 31.1229H178.222ZM184.221 34.0159C183.642 34.0159 183.081 33.9279 182.538 33.7519C182.003 33.5685 181.581 33.3339 181.273 33.0479L181.68 32.1899C181.974 32.4539 182.348 32.6702 182.802 32.8389C183.264 33.0002 183.737 33.0809 184.221 33.0809C184.859 33.0809 185.336 32.9745 185.651 32.7619C185.967 32.5419 186.124 32.2522 186.124 31.8929C186.124 31.6289 186.036 31.4162 185.86 31.2549C185.692 31.0862 185.479 30.9579 185.222 30.8699C184.973 30.7819 184.617 30.6829 184.155 30.5729C183.576 30.4335 183.107 30.2942 182.747 30.1549C182.395 30.0155 182.091 29.8029 181.834 29.5169C181.585 29.2235 181.46 28.8312 181.46 28.3399C181.46 27.9292 181.567 27.5589 181.779 27.2289C181.999 26.8989 182.329 26.6349 182.769 26.4369C183.209 26.2389 183.756 26.1399 184.408 26.1399C184.863 26.1399 185.31 26.1985 185.75 26.3159C186.19 26.4332 186.568 26.6019 186.883 26.8219L186.52 27.7019C186.198 27.4965 185.853 27.3425 185.486 27.2399C185.12 27.1299 184.76 27.0749 184.408 27.0749C183.785 27.0749 183.316 27.1885 183 27.4159C182.692 27.6432 182.538 27.9365 182.538 28.2959C182.538 28.5599 182.626 28.7762 182.802 28.9449C182.978 29.1062 183.195 29.2345 183.451 29.3299C183.715 29.4179 184.071 29.5132 184.518 29.6159C185.098 29.7552 185.563 29.8945 185.915 30.0339C186.267 30.1732 186.568 30.3859 186.817 30.6719C187.074 30.9579 187.202 31.3429 187.202 31.8269C187.202 32.2302 187.092 32.6005 186.872 32.9379C186.652 33.2679 186.319 33.5319 185.871 33.7299C185.424 33.9205 184.874 34.0159 184.221 34.0159ZM190.451 27.1849H187.811V26.2279H194.18V27.1849H191.54V33.9279H190.451V27.1849ZM195.598 26.2279H196.698V33.9279H195.598V26.2279ZM202.666 34.0159C201.896 34.0159 201.2 33.8472 200.576 33.5099C199.96 33.1652 199.476 32.6959 199.124 32.1019C198.772 31.5005 198.596 30.8259 198.596 30.0779C198.596 29.3299 198.772 28.6589 199.124 28.0649C199.476 27.4635 199.964 26.9942 200.587 26.6569C201.211 26.3122 201.907 26.1399 202.677 26.1399C203.279 26.1399 203.829 26.2425 204.327 26.4479C204.826 26.6459 205.251 26.9429 205.603 27.3389L204.888 28.0319C204.309 27.4232 203.587 27.1189 202.721 27.1189C202.149 27.1189 201.632 27.2472 201.17 27.5039C200.708 27.7605 200.345 28.1162 200.081 28.5709C199.825 29.0182 199.696 29.5205 199.696 30.0779C199.696 30.6352 199.825 31.1412 200.081 31.5959C200.345 32.0432 200.708 32.3952 201.17 32.6519C201.632 32.9085 202.149 33.0369 202.721 33.0369C203.579 33.0369 204.302 32.7289 204.888 32.1129L205.603 32.8059C205.251 33.2019 204.822 33.5025 204.316 33.7079C203.818 33.9132 203.268 34.0159 202.666 34.0159ZM212.811 34.0159C212.231 34.0159 211.67 33.9279 211.128 33.7519C210.592 33.5685 210.171 33.3339 209.863 33.0479L210.27 32.1899C210.563 32.4539 210.937 32.6702 211.392 32.8389C211.854 33.0002 212.327 33.0809 212.811 33.0809C213.449 33.0809 213.925 32.9745 214.241 32.7619C214.556 32.5419 214.714 32.2522 214.714 31.8929C214.714 31.6289 214.626 31.4162 214.45 31.2549C214.281 31.0862 214.068 30.9579 213.812 30.8699C213.562 30.7819 213.207 30.6829 212.745 30.5729C212.165 30.4335 211.696 30.2942 211.337 30.1549C210.985 30.0155 210.68 29.8029 210.424 29.5169C210.174 29.2235 210.05 28.8312 210.05 28.3399C210.05 27.9292 210.156 27.5589 210.369 27.2289C210.589 26.8989 210.919 26.6349 211.359 26.4369C211.799 26.2389 212.345 26.1399 212.998 26.1399C213.452 26.1399 213.9 26.1985 214.34 26.3159C214.78 26.4332 215.157 26.6019 215.473 26.8219L215.11 27.7019C214.787 27.4965 214.442 27.3425 214.076 27.2399C213.709 27.1299 213.35 27.0749 212.998 27.0749C212.374 27.0749 211.905 27.1885 211.59 27.4159C211.282 27.6432 211.128 27.9365 211.128 28.2959C211.128 28.5599 211.216 28.7762 211.392 28.9449C211.568 29.1062 211.784 29.2345 212.041 29.3299C212.305 29.4179 212.66 29.5132 213.108 29.6159C213.687 29.7552 214.153 29.8945 214.505 30.0339C214.857 30.1732 215.157 30.3859 215.407 30.6719C215.663 30.9579 215.792 31.3429 215.792 31.8269C215.792 32.2302 215.682 32.6005 215.462 32.9379C215.242 33.2679 214.908 33.5319 214.461 33.7299C214.013 33.9205 213.463 34.0159 212.811 34.0159ZM220.809 34.0159C219.782 34.0159 218.983 33.7225 218.411 33.1359C217.839 32.5492 217.553 31.7059 217.553 30.6059V26.2279H218.653V30.5619C218.653 32.2119 219.375 33.0369 220.82 33.0369C221.524 33.0369 222.063 32.8352 222.437 32.4319C222.811 32.0212 222.998 31.3979 222.998 30.5619V26.2279H224.065V30.6059C224.065 31.7132 223.779 32.5602 223.207 33.1469C222.635 33.7262 221.835 34.0159 220.809 34.0159ZM231.688 33.9279L230.027 31.5629C229.822 31.5775 229.66 31.5849 229.543 31.5849H227.64V33.9279H226.54V26.2279H229.543C230.54 26.2279 231.325 26.4662 231.897 26.9429C232.469 27.4195 232.755 28.0759 232.755 28.9119C232.755 29.5059 232.608 30.0119 232.315 30.4299C232.022 30.8479 231.604 31.1522 231.061 31.3429L232.887 33.9279H231.688ZM229.51 30.6499C230.207 30.6499 230.738 30.4995 231.105 30.1989C231.472 29.8982 231.655 29.4692 231.655 28.9119C231.655 28.3545 231.472 27.9292 231.105 27.6359C230.738 27.3352 230.207 27.1849 229.51 27.1849H227.64V30.6499H229.51ZM240.087 30.0339H241.143V33.0369C240.762 33.3522 240.318 33.5942 239.812 33.7629C239.306 33.9315 238.778 34.0159 238.228 34.0159C237.451 34.0159 236.75 33.8472 236.127 33.5099C235.504 33.1652 235.012 32.6959 234.653 32.1019C234.301 31.5005 234.125 30.8259 234.125 30.0779C234.125 29.3299 234.301 28.6552 234.653 28.0539C235.012 27.4525 235.504 26.9832 236.127 26.6459C236.758 26.3085 237.465 26.1399 238.25 26.1399C238.866 26.1399 239.423 26.2425 239.922 26.4479C240.428 26.6459 240.857 26.9392 241.209 27.3279L240.527 28.0099C239.911 27.4159 239.167 27.1189 238.294 27.1189C237.707 27.1189 237.179 27.2472 236.71 27.5039C236.248 27.7532 235.885 28.1052 235.621 28.5599C235.357 29.0072 235.225 29.5132 235.225 30.0779C235.225 30.6352 235.357 31.1412 235.621 31.5959C235.885 32.0432 236.248 32.3952 236.71 32.6519C237.179 32.9085 237.704 33.0369 238.283 33.0369C238.972 33.0369 239.574 32.8719 240.087 32.5419V30.0339ZM249.057 32.9709V33.9279H243.469V26.2279H248.903V27.1849H244.569V29.5499H248.43V30.4849H244.569V32.9709H249.057ZM256.206 33.9279L254.545 31.5629C254.34 31.5775 254.179 31.5849 254.061 31.5849H252.158V33.9279H251.058V26.2279H254.061C255.059 26.2279 255.843 26.4662 256.415 26.9429C256.987 27.4195 257.273 28.0759 257.273 28.9119C257.273 29.5059 257.127 30.0119 256.833 30.4299C256.54 30.8479 256.122 31.1522 255.579 31.3429L257.405 33.9279H256.206ZM254.028 30.6499C254.725 30.6499 255.257 30.4995 255.623 30.1989C255.99 29.8982 256.173 29.4692 256.173 28.9119C256.173 28.3545 255.99 27.9292 255.623 27.6359C255.257 27.3352 254.725 27.1849 254.028 27.1849H252.158V30.6499H254.028Z"
    fill="#919191" />
  <path
    d="M119.455 78.7839C119.455 80.6079 119.567 82.6559 119.791 84.9279C117.615 84.8319 113.951 84.7839 108.799 84.7839C102.655 84.7839 98.0148 84.8319 94.8788 84.9279V83.9679C96.0308 83.9039 96.8628 83.7759 97.3748 83.5839C97.9188 83.3919 98.2868 83.0239 98.4788 82.4799C98.6708 81.9359 98.7668 81.0559 98.7668 79.8399V56.0319C98.7668 54.8159 98.6708 53.9359 98.4788 53.3919C98.2868 52.8479 97.9188 52.4799 97.3748 52.2879C96.8628 52.0959 96.0308 51.9679 94.8788 51.9039V50.9439C98.0148 51.0399 102.655 51.0879 108.799 51.0879C113.503 51.0879 116.847 51.0399 118.831 50.9439C118.607 53.0559 118.495 54.9439 118.495 56.6079C118.495 57.8559 118.543 58.8479 118.639 59.5839H117.535C117.311 57.5039 117.023 55.9679 116.671 54.9759C116.319 53.9519 115.727 53.2159 114.895 52.7679C114.063 52.2879 112.799 52.0479 111.103 52.0479H107.119C105.967 52.0479 105.119 52.1439 104.575 52.3359C104.063 52.4959 103.711 52.8479 103.519 53.3919C103.327 53.9359 103.231 54.8159 103.231 56.0319V67.3599H106.399C107.519 67.3599 108.383 67.1039 108.991 66.5919C109.599 66.0479 109.999 65.4239 110.191 64.7199C110.415 63.9839 110.591 63.0719 110.719 61.9839L110.863 61.0239H111.967C111.871 62.3679 111.823 63.8719 111.823 65.5359V67.8399C111.823 69.4719 111.919 71.7439 112.111 74.6559H111.007C110.975 74.4319 110.879 73.6639 110.719 72.3519C110.559 71.0079 110.111 69.9999 109.375 69.3279C108.671 68.6559 107.679 68.3199 106.399 68.3199H103.231V79.8399C103.231 81.0559 103.327 81.9359 103.519 82.4799C103.711 83.0239 104.063 83.3919 104.575 83.5839C105.119 83.7439 105.967 83.8239 107.119 83.8239H110.623C112.607 83.8239 114.111 83.5679 115.135 83.0559C116.191 82.5119 116.959 81.6639 117.439 80.5119C117.919 79.3279 118.271 77.5999 118.495 75.3279H119.599C119.503 76.1919 119.455 77.3439 119.455 78.7839ZM150.289 80.8959C151.057 82.8799 152.161 83.9039 153.601 83.9679V84.9279C152.321 84.8319 150.609 84.7839 148.465 84.7839C145.713 84.7839 143.665 84.8319 142.321 84.9279V83.9679C143.537 83.9039 144.401 83.7599 144.913 83.5359C145.457 83.2799 145.729 82.8319 145.729 82.1919C145.729 81.6479 145.537 80.8959 145.153 79.9359L142.225 72.0639H130.609L128.641 77.1519C128.001 78.8799 127.681 80.1919 127.681 81.0879C127.681 82.0799 128.017 82.7999 128.689 83.2479C129.393 83.6959 130.449 83.9359 131.857 83.9679V84.9279C130.033 84.8319 128.193 84.7839 126.337 84.7839C124.897 84.7839 123.697 84.8319 122.737 84.9279V83.9679C124.337 83.5839 125.601 82.1919 126.529 79.7919L137.809 50.7039H138.577L150.289 80.8959ZM141.841 71.1039L136.465 56.7519L130.993 71.1039H141.841ZM179.298 50.9439C179.074 53.2159 178.962 55.2639 178.962 57.0879C178.962 58.6879 179.01 59.9999 179.106 61.0239H178.002C177.746 58.5599 177.426 56.7359 177.042 55.5519C176.658 54.3359 175.986 53.4559 175.026 52.9119C174.066 52.3359 172.594 52.0479 170.61 52.0479H167.586C166.434 52.0479 165.586 52.1439 165.042 52.3359C164.53 52.4959 164.178 52.8479 163.986 53.3919C163.794 53.9359 163.698 54.8159 163.698 56.0319V67.8399H167.202C168.322 67.8399 169.186 67.5839 169.794 67.0719C170.402 66.5279 170.802 65.9039 170.994 65.1999C171.218 64.4639 171.394 63.5519 171.522 62.4639L171.666 61.5039H172.77C172.674 62.8479 172.626 64.3519 172.626 66.0159V68.3199C172.626 69.9519 172.722 72.2239 172.914 75.1359H171.81C171.778 74.9119 171.682 74.1439 171.522 72.8319C171.362 71.4879 170.914 70.4799 170.178 69.8079C169.474 69.1359 168.482 68.7999 167.202 68.7999H163.698V79.8399C163.698 81.0559 163.826 81.9359 164.082 82.4799C164.338 83.0239 164.786 83.3919 165.426 83.5839C166.066 83.7759 167.106 83.9039 168.546 83.9679V84.9279C166.882 84.8319 164.53 84.7839 161.49 84.7839C158.738 84.7839 156.69 84.8319 155.346 84.9279V83.9679C156.498 83.9039 157.33 83.7759 157.842 83.5839C158.386 83.3919 158.754 83.0239 158.946 82.4799C159.138 81.9359 159.234 81.0559 159.234 79.8399V56.0319C159.234 54.8159 159.138 53.9359 158.946 53.3919C158.754 52.8479 158.386 52.4799 157.842 52.2879C157.33 52.0959 156.498 51.9679 155.346 51.9039V50.9439C158.482 51.0399 163.122 51.0879 169.266 51.0879C173.97 51.0879 177.314 51.0399 179.298 50.9439ZM191.986 71.1999V79.8399C191.986 81.0559 192.114 81.9359 192.37 82.4799C192.626 83.0239 193.074 83.3919 193.714 83.5839C194.354 83.7759 195.394 83.9039 196.834 83.9679V84.9279C195.17 84.8319 192.818 84.7839 189.778 84.7839C187.026 84.7839 184.978 84.8319 183.634 84.9279V83.9679C184.786 83.9039 185.618 83.7759 186.13 83.5839C186.674 83.3919 187.042 83.0239 187.234 82.4799C187.426 81.9359 187.522 81.0559 187.522 79.8399V56.0319C187.522 54.8159 187.426 53.9359 187.234 53.3919C187.042 52.8479 186.674 52.4799 186.13 52.2879C185.618 52.0959 184.786 51.9679 183.634 51.9039V50.9439C184.978 51.0399 186.93 51.0879 189.49 51.0879L194.674 51.0399C195.282 51.0079 195.97 50.9919 196.738 50.9919C200.482 50.9919 203.346 51.8559 205.33 53.5839C207.314 55.2799 208.306 57.5679 208.306 60.4479C208.306 62.2079 207.906 63.9039 207.106 65.5359C206.338 67.1359 205.01 68.4799 203.122 69.5679C201.266 70.6559 198.786 71.1999 195.682 71.1999H191.986ZM195.538 51.9039C194.546 51.9039 193.794 52.0159 193.282 52.2399C192.802 52.4639 192.466 52.8639 192.274 53.4399C192.082 54.0159 191.986 54.8799 191.986 56.0319V70.2399H195.202C198.338 70.2399 200.498 69.4079 201.682 67.7439C202.898 66.0479 203.506 63.7919 203.506 60.9759C203.506 57.8719 202.882 55.5839 201.634 54.1119C200.418 52.6399 198.386 51.9039 195.538 51.9039ZM222.944 50.4159C224.352 50.4159 225.456 50.5759 226.256 50.8959C227.088 51.1839 227.936 51.6159 228.8 52.1919C229.504 52.6399 230.048 52.8639 230.432 52.8639C230.72 52.8639 230.944 52.7039 231.104 52.3839C231.264 52.0319 231.392 51.4879 231.488 50.7519H232.592C232.432 52.6079 232.352 55.8719 232.352 60.5439H231.248C231.056 57.9519 230.304 55.7759 228.992 54.0159C227.712 52.2239 225.84 51.3279 223.376 51.3279C221.648 51.3279 220.24 51.8559 219.152 52.9119C218.064 53.9359 217.52 55.2639 217.52 56.8959C217.52 58.1119 217.792 59.1679 218.336 60.0639C218.912 60.9599 219.632 61.7279 220.496 62.3679C221.36 63.0079 222.592 63.8239 224.192 64.8159L225.584 65.6799C227.6 66.9279 229.184 68.0319 230.336 68.9919C231.52 69.9199 232.464 70.9919 233.168 72.2079C233.872 73.4239 234.224 74.8479 234.224 76.4799C234.224 79.3919 233.264 81.6479 231.344 83.2479C229.424 84.8159 226.992 85.5999 224.048 85.5999C222.512 85.5999 221.248 85.4399 220.256 85.1199C219.296 84.7999 218.368 84.3679 217.472 83.8239C216.768 83.3759 216.224 83.1519 215.84 83.1519C215.552 83.1519 215.328 83.3279 215.168 83.6799C215.008 83.9999 214.88 84.5279 214.784 85.2639H213.68C213.808 83.5039 213.872 79.6639 213.872 73.7439H214.976C215.2 76.9759 216 79.5999 217.376 81.6159C218.752 83.6319 220.864 84.6399 223.712 84.6399C225.44 84.6399 226.912 84.1119 228.128 83.0559C229.344 81.9679 229.952 80.3679 229.952 78.2559C229.952 76.4639 229.344 74.9439 228.128 73.6959C226.944 72.4479 225.056 71.0399 222.464 69.4719C220.576 68.3199 219.04 67.2959 217.856 66.3999C216.704 65.5039 215.76 64.4319 215.024 63.1839C214.288 61.9039 213.92 60.4159 213.92 58.7199C213.92 56.0319 214.784 53.9839 216.512 52.5759C218.24 51.1359 220.384 50.4159 222.944 50.4159Z"
    fill="#919191" />
</svg>